<svg width="24" height="24" viewBox="0 0 24 24" fill="none" xmlns="http://www.w3.org/2000/svg">
<path fill-rule="evenodd" clip-rule="evenodd" d="M18.6382 2.34495L18.7446 2.36321C18.761 2.36682 18.778 2.37093 18.7973 2.37583C19.0137 2.43482 19.1922 2.5875 19.2841 2.79203C19.7484 3.82533 19.8421 4.98143 19.5593 6.06774L19.543 6.1214L19.581 6.16608C20.2797 7.04123 20.6877 8.11605 20.7434 9.23938L20.75 9.4994C20.75 13.4198 19.0065 15.365 15.8354 16.0472L15.691 16.0754L15.6969 16.0971C15.729 16.2447 15.7451 16.4082 15.7516 16.6144L15.7552 16.9591L15.7507 17.3488L15.75 20.9994C15.75 21.4136 15.4142 21.7494 15 21.7494C14.6203 21.7494 14.3065 21.4672 14.2568 21.1012L14.25 20.9994L14.2545 16.7511L14.2475 16.5777C14.2367 16.4316 14.214 16.359 14.1728 16.2835C14.1338 16.212 14.0703 16.1304 13.9697 16.0297C13.524 15.5841 13.7934 14.8208 14.4201 14.7537C17.6881 14.4035 19.25 13.0512 19.25 9.50016C19.249 8.49997 18.8588 7.53943 18.162 6.8219C17.9596 6.61357 17.8958 6.30715 17.998 6.03534C18.2386 5.39584 18.2821 4.70444 18.1313 4.04815L18.078 3.8494L17.9826 3.86633L17.849 3.8957L17.7008 3.93443C17.1049 4.10186 16.3778 4.44894 15.516 5.02344C15.3381 5.14207 15.1179 5.17909 14.911 5.12519C13.0022 4.62806 10.9978 4.62806 9.08902 5.12519C8.88206 5.17909 8.66193 5.14207 8.48397 5.02344C7.62224 4.44894 6.89512 4.10186 6.29917 3.93443L6.10482 3.88491C6.07459 3.87806 6.04544 3.87188 6.01735 3.86633L5.921 3.8494L5.86867 4.04815C5.73465 4.63152 5.75415 5.24263 5.92909 5.82037L6.00198 6.03534C6.10422 6.30715 6.04036 6.61357 5.83804 6.8219C5.14124 7.53943 4.75102 8.49997 4.75 9.4994C4.75 13.0512 6.31186 14.4035 9.5799 14.7537C10.2066 14.8208 10.476 15.5841 10.0303 16.0297C9.72296 16.3371 9.65616 16.5922 9.73041 17.3223L9.75 17.4994V20.9994C9.75 21.4136 9.41421 21.7494 9 21.7494C8.6203 21.7494 8.30651 21.4672 8.25685 21.1012L8.25 20.9994L8.25209 19.97C6.37179 20.3307 5.17589 19.6987 4.09379 18.2423L3.85839 17.9109L3.55906 17.4775C3.24922 17.038 3.04281 16.8251 2.85165 16.742L2.78838 16.7189C2.39099 16.602 2.1636 16.1852 2.28048 15.7878C2.39735 15.3904 2.81424 15.163 3.21162 15.2799C3.78468 15.4484 4.1809 15.795 4.6439 16.4179L4.88303 16.7544L5.18555 17.1924C6.03916 18.4047 6.7563 18.8124 8.2536 18.4359L8.25579 17.5924C8.18151 16.9982 8.17845 16.5239 8.28472 16.1074L8.294 16.0724L8.16464 16.0472C5.07282 15.3821 3.33807 13.5162 3.25326 9.78902L3.25 9.49863C3.25124 8.28249 3.66656 7.10854 4.41904 6.16608L4.456 6.1214L4.44073 6.06774C4.17965 5.06499 4.23943 4.00278 4.61532 3.03257L4.71588 2.79203C4.80777 2.5875 4.98635 2.43482 5.20266 2.37583L5.25543 2.36321L5.36175 2.34495C6.14673 2.23922 7.28955 2.52766 8.79921 3.4457L9.037 3.5934L9.11657 3.57487C11.0148 3.14483 12.9852 3.14483 14.8834 3.57487L14.962 3.5934L15.2008 3.4457C16.7105 2.52766 17.8533 2.23922 18.6382 2.34495Z" fill="#212121"/>
</svg>
