<svg width="18" height="18" viewBox="0 0 18 18" fill="none" xmlns="http://www.w3.org/2000/svg">
<path fill-rule="evenodd" clip-rule="evenodd" d="M2.75 0H14.75C16.2688 0 17.5 1.23122 17.5 2.75V14.75C17.5 16.2688 16.2688 17.5 14.75 17.5H2.75C1.23122 17.5 0 16.2688 0 14.75V2.75C0 1.23122 1.23122 0 2.75 0ZM14.75 1.5H2.75C2.05964 1.5 1.5 2.05964 1.5 2.75V14.75C1.5 15.4404 2.05964 16 2.75 16H14.75C15.4404 16 16 15.4404 16 14.75V2.75C16 2.05964 15.4404 1.5 14.75 1.5ZM4.75 7C5.1297 7 5.44349 7.28215 5.49315 7.64823L5.5 7.75V12.75C5.5 13.1642 5.16421 13.5 4.75 13.5C4.3703 13.5 4.05651 13.2178 4.00685 12.8518L4 12.75V7.75C4 7.33579 4.33579 7 4.75 7ZM5.49315 4.64823C5.44349 4.28215 5.1297 4 4.75 4C4.33579 4 4 4.33579 4 4.75L4.00685 4.86177C4.05651 5.22785 4.3703 5.51 4.75 5.51C5.16421 5.51 5.5 5.17421 5.5 4.76L5.49315 4.64823ZM9.39023 7.35915C9.25845 7.14375 9.02101 7 8.75 7C8.33579 7 8 7.33579 8 7.75V9.75V12.75L8.00685 12.8518C8.05651 13.2178 8.3703 13.5 8.75 13.5C9.16421 13.5 9.5 13.1642 9.5 12.75V9.75L9.50645 9.62219C9.57047 8.99187 10.1028 8.5 10.75 8.5C11.4404 8.5 12 9.05964 12 9.75V12.75L12.0068 12.8518C12.0565 13.2178 12.3703 13.5 12.75 13.5C13.1642 13.5 13.5 13.1642 13.5 12.75V9.75L13.495 9.58248C13.4084 8.1417 12.2125 7 10.75 7C10.2554 7 9.79126 7.13058 9.39023 7.35915Z" fill="#212121"/>
</svg>
